<svg width="89" height="16" viewBox="0 0 89 16" fill="none" xmlns="http://www.w3.org/2000/svg">
<path d="M2.21999 1.82L0.759993 1.54V0.140001H3.87999C4.31999 0.140001 4.91333 0.113334 5.65999 0.0600004C5.83333 0.0466673 6.09333 0.0333341 6.43999 0.0200009C6.79999 0.00666698 7.11999 0 7.39999 0C9.82666 0 11.6533 0.606667 12.88 1.82C14.1067 3.03333 14.72 4.77333 14.72 7.04C14.72 8.6 14.42 9.99333 13.82 11.22C13.22 12.4467 12.36 13.4133 11.24 14.12C10.12 14.8133 8.79999 15.16 7.27999 15.16C6.86666 15.16 6.24666 15.1333 5.41999 15.08C4.64666 15.0267 4.14666 15 3.91999 15H0.679993V13.68L2.21999 13.46V1.82ZM5.59999 13.52C6.06666 13.6667 6.59999 13.7267 7.19999 13.7C8.39999 13.6867 9.32666 13.18 9.97999 12.18C10.6467 11.1667 10.98 9.62 10.98 7.54C10.98 5.62 10.6533 4.12 9.99999 3.04C9.35999 1.94667 8.34666 1.4 6.95999 1.4C6.63999 1.4 6.35333 1.42 6.09999 1.46C5.84666 1.5 5.67999 1.52667 5.59999 1.54V13.52Z" fill="black"/>
<path d="M16.1139 13.68L17.3339 13.5V5.98L16.1539 5.62V4.06L19.4739 3.62H19.5339L20.0939 4.04V4.52L20.0339 6.18H20.0939C20.1872 5.87333 20.4006 5.52 20.7339 5.12C21.0672 4.70667 21.4872 4.35333 21.9939 4.06C22.5139 3.75333 23.0739 3.6 23.6739 3.6C24.0206 3.6 24.2872 3.64667 24.4739 3.74V7.22C24.2606 7.06 24.0272 6.93333 23.7739 6.84C23.5339 6.74667 23.2206 6.7 22.8339 6.7C22.3539 6.7 21.9206 6.76667 21.5339 6.9C21.1472 7.02 20.8406 7.16 20.6139 7.32V13.5L22.8139 13.7V15H16.1139V13.68Z" fill="black"/>
<path d="M34.7233 15.2C34.2433 15.2 33.8966 15.1 33.6833 14.9C33.4699 14.6867 33.3633 14.38 33.3633 13.98V13.54C33.0433 13.98 32.5633 14.3733 31.9233 14.72C31.2833 15.0533 30.6366 15.22 29.9833 15.22C28.6766 15.22 27.7433 14.9 27.1833 14.26C26.6366 13.6067 26.3633 12.52 26.3633 11V5.44L25.4233 5.18V3.9L29.1833 3.64H29.2033L29.6433 3.92V11.08C29.6433 11.9467 29.7499 12.5533 29.9633 12.9C30.1766 13.2333 30.5566 13.4 31.1033 13.4C31.8499 13.4 32.4766 13.1467 32.9833 12.64V5.44L31.7433 5.14V3.9L35.7033 3.64H35.7633L36.2433 3.92V13.62H37.3033V14.9C36.8499 14.9933 36.4299 15.0667 36.0433 15.12C35.6699 15.1733 35.2299 15.2 34.7233 15.2Z" fill="black"/>
<path d="M38.6344 13.68L39.6944 13.5V5.98L38.5144 5.62V4.06L42.1544 3.62L42.3144 3.7L42.7144 4.26V5.26C43.141 4.82 43.7677 4.44667 44.5944 4.14C45.421 3.82 46.1277 3.66 46.7144 3.66C47.4344 3.66 48.0144 3.78 48.4544 4.02C48.9077 4.26 49.2477 4.63333 49.4744 5.14C49.9277 4.71333 50.4944 4.36 51.1744 4.08C51.8677 3.8 52.5677 3.66 53.2744 3.66C54.4477 3.66 55.2877 4 55.7944 4.68C56.3144 5.36 56.5744 6.47333 56.5744 8.02V13.5L57.7744 13.68V15H52.3544V13.68L53.2544 13.5V8.1C53.2544 7.14 53.141 6.47333 52.9144 6.1C52.701 5.72667 52.301 5.54 51.7144 5.54C51.101 5.54 50.461 5.8 49.7944 6.32C49.8744 6.81333 49.9144 7.38 49.9144 8.02V13.5L51.0344 13.68V15H45.5744V13.68L46.5744 13.5V8.04C46.5744 7.09333 46.4677 6.44 46.2544 6.08C46.0544 5.72 45.6677 5.54 45.0944 5.54C44.721 5.54 44.3477 5.62667 43.9744 5.8C43.6144 5.96 43.301 6.16 43.0344 6.4V13.5L44.1144 13.68V15H38.6344V13.68Z" fill="black"/>
<path d="M71 15H75V13H73V11H71V7H75V5H71V7H69V9H67V1H63V3H65V15H67V11H69V13H71V15Z" fill="black"/>
<path d="M76.9922 3H78.9922V1H76.9922V3ZM74.9922 7H76.9922V15H78.9922V5H74.9922V7Z" fill="black"/>
<path d="M84.9883 7H88.9883V5H84.9883V3H82.9883V15H88.9883V13H84.9883V7Z" fill="black"/>
</svg>
